<?xml version="1.0" standalone="no"?>
<!DOCTYPE svg PUBLIC "-//W3C//DTD SVG 20010904//EN"
 "http://www.w3.org/TR/2001/REC-SVG-20010904/DTD/svg10.dtd">
<svg version="1.0" xmlns="http://www.w3.org/2000/svg"
 width="1434.000000pt" height="1434.000000pt" viewBox="0 0 1434.000000 1434.000000"
 preserveAspectRatio="xMidYMid meet">

<g transform="translate(0.000000,1434.000000) scale(0.100000,-0.100000)"
fill="#000000" stroke="none">
<path d="M5150 14259 c-1811 -25 -2764 -135 -3425 -396 -996 -393 -1410 -1137
-1564 -2808 -71 -760 -87 -1459 -89 -3780 -3 -2320 17 -3218 89 -3990 129
-1398 438 -2126 1089 -2564 575 -386 1419 -560 3025 -621 1062 -41 4734 -41
5790 0 1241 48 1989 158 2545 375 854 333 1280 939 1479 2105 101 589 151
1308 171 2472 8 455 5 4386 -4 4458 -2 19 -7 173 -11 342 -3 169 -8 322 -10
340 -2 18 -6 107 -10 198 -4 91 -8 179 -10 195 -2 17 -7 80 -10 140 -15 270
-54 644 -96 915 -277 1793 -1028 2386 -3234 2554 -487 38 -925 54 -1775 66
-759 11 -3149 10 -3950 -1z m3740 -4624 c998 -463 1573 -736 1588 -751 31 -35
29 -79 -7 -115 l-29 -29 -3197 0 -3197 0 -29 29 c-36 36 -38 80 -6 115 14 16
561 275 1577 747 855 397 1566 726 1580 730 14 5 54 7 90 5 62 -4 137 -37
1630 -731z m1550 -1720 c62 -32 60 -3 60 -800 0 -797 2 -768 -60 -800 -44 -23
-6346 -23 -6390 0 -62 32 -60 3 -60 800 0 793 -2 767 58 799 24 13 412 15
3195 16 2813 0 3171 -2 3197 -15z m-6 -2440 c69 -33 66 7 66 -800 0 -629 -2
-730 -15 -755 -33 -64 57 -60 -1406 -60 -1226 0 -1334 1 -1351 17 -17 15 -18
43 -18 478 l0 462 -23 34 c-39 58 -58 60 -463 57 -350 -3 -364 -4 -391 -24
-53 -40 -53 -35 -53 -528 0 -413 -2 -461 -17 -478 -15 -17 -70 -18 -1350 -18
-1465 0 -1375 -4 -1408 60 -13 25 -15 126 -15 755 0 799 -3 766 62 798 30 15
295 17 3191 17 2803 0 3163 -2 3191 -15z"/>
</g>
</svg>
